<svg xmlns="http://www.w3.org/2000/svg" viewBox="0 0 1024 1024">
  <defs>
    <linearGradient id="bg" x1="160" y1="96" x2="864" y2="928" gradientUnits="userSpaceOnUse">
      <stop offset="0" stop-color="#3b82f6"/>
      <stop offset="0.48" stop-color="#2563eb"/>
      <stop offset="1" stop-color="#0f766e"/>
    </linearGradient>
    <linearGradient id="pageLeft" x1="224" y1="216" x2="482" y2="812" gradientUnits="userSpaceOnUse">
      <stop offset="0" stop-color="#ffffff"/>
      <stop offset="1" stop-color="#dbeafe"/>
    </linearGradient>
    <linearGradient id="pageRight" x1="800" y1="214" x2="536" y2="812" gradientUnits="userSpaceOnUse">
      <stop offset="0" stop-color="#ffffff"/>
      <stop offset="1" stop-color="#ccfbf1"/>
    </linearGradient>
    <filter id="softShadow" x="-20%" y="-20%" width="140%" height="150%">
      <feDropShadow dx="0" dy="28" stdDeviation="26" flood-color="#0f172a" flood-opacity="0.26"/>
    </filter>
    <filter id="pageShadow" x="-20%" y="-20%" width="140%" height="150%">
      <feDropShadow dx="0" dy="14" stdDeviation="14" flood-color="#0f172a" flood-opacity="0.18"/>
    </filter>
  </defs>

  <rect x="64" y="64" width="896" height="896" rx="216" fill="url(#bg)"/>
  <path d="M188 742c96 54 200 80 324 80s228-26 324-80V264c-86-48-190-72-324-72s-238 24-324 72v478z" fill="#0f172a" opacity="0.16"/>

  <g filter="url(#softShadow)">
    <path d="M214 252c82-48 178-72 288-72 20 0 36 16 36 36v582c0 20-16 36-36 36-110 0-206 24-288 72-24 14-54-4-54-32V308c0-23 12-44 54-56z" fill="#1e3a8a"/>
    <path d="M810 252c-82-48-178-72-288-72-20 0-36 16-36 36v582c0 20 16 36 36 36 110 0 206 24 288 72 24 14 54-4 54-32V308c0-23-12-44-54-56z" fill="#115e59"/>
  </g>

  <g filter="url(#pageShadow)">
    <path d="M238 238c70-36 150-54 238-54 24 0 44 20 44 44v574c0 18-15 33-33 32-91-5-174 14-249 58-18 11-42-2-42-24V310c0-31 16-59 42-72z" fill="url(#pageLeft)"/>
    <path d="M786 238c-70-36-150-54-238-54-24 0-44 20-44 44v574c0 18 15 33 33 32 91-5 174 14 249 58 18 11 42-2 42-24V310c0-31-16-59-42-72z" fill="url(#pageRight)"/>
  </g>

  <path d="M512 208v610" stroke="#1e40af" stroke-width="18" stroke-linecap="round" opacity="0.55"/>
  <path d="M286 354c48-18 100-27 154-27" stroke="#60a5fa" stroke-width="22" stroke-linecap="round" opacity="0.55"/>
  <path d="M286 450c47-16 99-24 154-24" stroke="#60a5fa" stroke-width="22" stroke-linecap="round" opacity="0.42"/>
  <path d="M286 546c47-15 99-22 154-22" stroke="#60a5fa" stroke-width="22" stroke-linecap="round" opacity="0.34"/>
  <path d="M738 354c-48-18-100-27-154-27" stroke="#2dd4bf" stroke-width="22" stroke-linecap="round" opacity="0.55"/>
  <path d="M738 450c-47-16-99-24-154-24" stroke="#2dd4bf" stroke-width="22" stroke-linecap="round" opacity="0.42"/>
  <path d="M738 546c-47-15-99-22-154-22" stroke="#2dd4bf" stroke-width="22" stroke-linecap="round" opacity="0.34"/>

  <path d="M644 690c46 5 90 18 132 38" stroke="#0f766e" stroke-width="24" stroke-linecap="round" opacity="0.42"/>
  <path d="M380 690c-46 5-90 18-132 38" stroke="#2563eb" stroke-width="24" stroke-linecap="round" opacity="0.42"/>
  <path d="M180 220c38-64 110-108 190-132" stroke="#ffffff" stroke-width="28" stroke-linecap="round" opacity="0.2"/>
</svg>
